<?xml version="1.0" encoding="UTF-8"?>
<svg xmlns="http://www.w3.org/2000/svg" xmlns:xlink="http://www.w3.org/1999/xlink" viewBox="0 0 50 50" width="50px" height="50px">
<g id="surface6867340">
<path style=" stroke:none;fill-rule:nonzero;fill:rgb(80.000001%,80.000001%,80.000001%);fill-opacity:1;" d="M 25 38.5 C 17.542969 38.5 11.5 32.457031 11.5 25 C 11.5 17.542969 17.542969 11.5 25 11.5 C 32.457031 11.5 38.5 17.542969 38.5 25 C 38.5 32.457031 32.457031 38.5 25 38.5 Z M 25 38.5 "/>
<path style=" stroke:none;fill-rule:nonzero;fill:rgb(33.333334%,33.333334%,33.333334%);fill-opacity:1;" d="M 14.667969 19.25 C 14.429688 19.25 14.234375 19.441406 14.234375 19.679688 L 14.234375 25.757812 C 14.234375 28.410156 16.253906 30.714844 18.902344 30.867188 C 21.441406 31.011719 23.601562 29.230469 24.050781 26.847656 C 24.296875 27.179688 24.546875 27.488281 24.796875 27.773438 L 23.277344 34.222656 C 23.25 34.347656 23.277344 34.484375 23.359375 34.585938 C 23.441406 34.6875 23.566406 34.75 23.699219 34.75 L 25.902344 34.75 C 26.101562 34.75 26.273438 34.617188 26.320312 34.421875 C 26.585938 33.292969 27.007812 31.523438 27.386719 29.921875 L 27.777344 30.148438 C 28.710938 30.632812 29.65625 30.875 30.597656 30.875 C 33.695312 30.875 36.164062 28.136719 35.710938 24.953125 C 35.410156 22.847656 33.789062 21.109375 31.707031 20.660156 C 29.285156 20.140625 26.949219 21.378906 25.945312 23.445312 C 25.945312 23.445312 25.832031 23.691406 25.742188 23.941406 C 25.03125 22.714844 24.617188 21.441406 24.398438 20.523438 C 24.316406 20.1875 24.199219 19.578125 24.183594 19.539062 C 24.125 19.367188 23.960938 19.25 23.777344 19.25 L 21.554688 19.25 C 21.316406 19.25 21.125 19.441406 21.125 19.679688 L 21.125 25.835938 C 21.125 26.847656 20.386719 27.753906 19.378906 27.851562 C 18.226562 27.964844 17.25 27.054688 17.25 25.921875 L 17.25 19.679688 C 17.25 19.441406 17.058594 19.25 16.820312 19.25 Z M 30.597656 23.554688 C 31.785156 23.554688 32.75 24.519531 32.75 25.707031 C 32.75 26.894531 31.785156 27.859375 30.597656 27.859375 C 29.640625 27.859375 28.75 27.285156 28.128906 26.78125 C 28.355469 25.820312 28.507812 25.179688 28.511719 25.167969 C 28.757812 24.21875 29.613281 23.554688 30.597656 23.554688 Z M 30.597656 23.554688 "/>
</g>
</svg>
